# xmcd
#
# Track frame offsets:
#	183
#	18490
#	33423
#	49050
#	61988
#	74923
#	87285
#	97055
#	108550
#	121450
#	131653
#	142265
#	155233
#	168675
#	179245
#	190250
#	199545
#	209955
#
# Disc length: 2943 seconds
# Revision: 3
# Processed by: cddbd v1.5.2PL0 Copyright (c) Steve Scherf et al.
# Submitted via: dBpowerAMP V12.0
#
DISCID=2c0b7d12
DTITLE=Albert Collins - The Complete Imperial Recordings [dBP-LITE-FLAC@]
DYEAR=1991
DGENRE=Blues
TTITLE0=Baby What You Want Me To Do/ Rock Me Baby
TTITLE1=Lip Service
TTITLE2=Things That I Used To Do (Talking Slim Blues)
TTITLE3=Back Yard Back Talk
TTITLE4=Tounge Lashing
TTITLE5=And Then It Started Raining
TTITLE6=Soul Food
TTITLE7=Jam It Up
TTITLE8=Do What You Want To Do
TTITLE9=Black Bottom Bayou
TTITLE10=Junkey Monkey
TTITLE11=69 Underpass Roadside Inn
TTITLE12=I Need You So
TTITLE13=Bitsey
TTITLE14=Cool 'N Collards
TTITLE15=Blend Down And Jam
TTITLE16=Sweet 'N Sour
TTITLE17=Swamp Sauce
EXTD=
EXTT0=
EXTT1=
EXTT2=
EXTT3=
EXTT4=
EXTT5=
EXTT6=
EXTT7=
EXTT8=
EXTT9=
EXTT10=
EXTT11=
EXTT12=
EXTT13=
EXTT14=
EXTT15=
EXTT16=
EXTT17=
PLAYORDER=
